<svg width="151" height="50" viewBox="0 0 151 50" fill="none" xmlns="http://www.w3.org/2000/svg">
<path d="M9.5 25.5V17.26V15.5L24 24.5V34L9.5 25.5Z" fill="#0A3FCB"/>
<path d="M9.5 25.5L31.1746 12.8565C32.6146 12.0165 33.5 10.4749 33.5 8.80788C33.5 5.15823 29.5129 2.90884 26.3892 4.79613L9.5 15V25.5Z" fill="#2964FF"/>
<path d="M24 35.5V26.5V24.5L2.19949 37.6711C0.834303 38.4959 0 39.9747 0 41.5698C0 45.0852 3.81342 47.2755 6.84998 45.5042L24 35.5Z" fill="#2964FF"/>
<path d="M47.7515 35.5195V17.6098H51.6405L58.1647 28.2277L55.3759 28.2021L61.977 17.6098H65.7124V35.5195H61.4908V29.9419C61.4908 28.4068 61.5249 27.0252 61.5932 25.7971C61.6785 24.569 61.8149 23.3494 62.0025 22.1384L62.4887 23.4688L57.5251 31.17H55.8365L50.9753 23.52L51.4614 22.1384C51.649 23.2812 51.7769 24.4581 51.8452 25.6692C51.9304 26.8632 51.9731 28.2874 51.9731 29.9419V35.5195H47.7515ZM68.1668 41.4042L71.2626 34.1123L71.3138 36.2103L64.764 21.9337H69.3949L72.2605 28.765C72.414 29.1061 72.5589 29.4729 72.6954 29.8652C72.8319 30.2575 72.9342 30.6327 73.0024 30.9909L72.4395 31.3235C72.5419 31.0677 72.6528 30.7521 72.7722 30.3769C72.9086 29.9846 73.0536 29.5667 73.2071 29.1232L75.7145 21.9337H80.371L74.5887 35.5195L72.2349 41.4042H68.1668Z" fill="#2964FF"/>
<path d="M79.4273 35.5195V17.6098H83.3163L89.8406 28.2277L87.0518 28.2021L93.6528 17.6098H97.3882V35.5195H93.1667V29.9419C93.1667 28.4068 93.2008 27.0252 93.269 25.7971C93.3543 24.569 93.4907 23.3494 93.6784 22.1384L94.1645 23.4688L89.2009 31.17H87.5123L82.6511 23.52L83.1372 22.1384C83.3248 23.2812 83.4528 24.4581 83.521 25.6692C83.6063 26.8632 83.6489 28.2874 83.6489 29.9419V35.5195H79.4273ZM104.525 35.7754C103.109 35.7754 101.847 35.4684 100.738 34.8543C99.6465 34.2403 98.7766 33.4045 98.1284 32.347C97.4973 31.2894 97.1818 30.0784 97.1818 28.7138C97.1818 27.3493 97.4973 26.1382 98.1284 25.0807C98.7766 24.0232 99.6465 23.1874 100.738 22.5734C101.847 21.9593 103.109 21.6523 104.525 21.6523C105.94 21.6523 107.194 21.9593 108.286 22.5734C109.394 23.1874 110.264 24.0232 110.895 25.0807C111.527 26.1382 111.842 27.3493 111.842 28.7138C111.842 30.0784 111.527 31.2894 110.895 32.347C110.264 33.4045 109.394 34.2403 108.286 34.8543C107.194 35.4684 105.94 35.7754 104.525 35.7754ZM104.525 32.2446C105.139 32.2446 105.685 32.0911 106.162 31.7841C106.64 31.477 107.015 31.0592 107.288 30.5304C107.561 30.0016 107.689 29.3961 107.672 28.7138C107.689 28.0316 107.561 27.426 107.288 26.8973C107.015 26.3515 106.64 25.925 106.162 25.618C105.685 25.311 105.139 25.1575 104.525 25.1575C103.911 25.1575 103.356 25.311 102.862 25.618C102.384 25.925 102.009 26.3515 101.736 26.8973C101.463 27.426 101.335 28.0316 101.352 28.7138C101.335 29.3961 101.463 30.0016 101.736 30.5304C102.009 31.0592 102.384 31.477 102.862 31.7841C103.356 32.0911 103.911 32.2446 104.525 32.2446ZM111.193 35.5195V21.9337H115.082L115.21 24.6969L114.391 25.004C114.579 24.3899 114.911 23.8356 115.389 23.3409C115.884 22.8292 116.472 22.4198 117.154 22.1128C117.837 21.8058 118.553 21.6523 119.303 21.6523C120.327 21.6523 121.188 21.8655 121.888 22.2919C122.587 22.7013 123.116 23.3239 123.474 24.1596C123.832 24.9784 124.011 25.9847 124.011 27.1787V35.5195H119.892V27.5113C119.892 26.9655 119.815 26.5135 119.662 26.1553C119.508 25.7971 119.269 25.5327 118.945 25.3622C118.638 25.1745 118.254 25.0892 117.794 25.1063C117.436 25.1063 117.103 25.166 116.796 25.2854C116.489 25.3877 116.225 25.5498 116.003 25.7715C115.781 25.9762 115.602 26.215 115.466 26.4879C115.346 26.7608 115.287 27.0593 115.287 27.3834V35.5195H113.265C112.788 35.5195 112.378 35.5195 112.037 35.5195C111.696 35.5195 111.415 35.5195 111.193 35.5195ZM130.581 35.7754C129.08 35.7754 127.775 35.4769 126.666 34.8799C125.557 34.2659 124.696 33.4386 124.082 32.3981C123.468 31.3406 123.161 30.1381 123.161 28.7906C123.161 27.7501 123.331 26.7949 123.673 25.925C124.014 25.0551 124.491 24.3046 125.105 23.6735C125.719 23.0254 126.444 22.5307 127.28 22.1896C128.133 21.8314 129.063 21.6523 130.069 21.6523C131.024 21.6523 131.894 21.8229 132.679 22.164C133.48 22.5051 134.171 22.9827 134.751 23.5968C135.331 24.2108 135.774 24.9357 136.081 25.7715C136.388 26.6073 136.525 27.5199 136.491 28.5092L136.465 29.6093H125.643L125.054 27.3066H133.139L132.704 27.7928V27.2811C132.67 26.8546 132.534 26.4794 132.295 26.1553C132.073 25.8142 131.775 25.5498 131.399 25.3622C131.024 25.1745 130.598 25.0807 130.12 25.0807C129.455 25.0807 128.883 25.2172 128.406 25.4901C127.945 25.7459 127.596 26.1297 127.357 26.6414C127.118 27.1361 126.999 27.7501 126.999 28.4836C126.999 29.2341 127.152 29.8908 127.459 30.4536C127.783 30.9995 128.244 31.4259 128.841 31.7329C129.455 32.0399 130.18 32.1934 131.016 32.1934C131.595 32.1934 132.107 32.1082 132.551 31.9376C133.011 31.767 133.506 31.477 134.035 31.0677L135.954 33.7797C135.425 34.2403 134.862 34.6155 134.265 34.9055C133.668 35.1955 133.054 35.4087 132.423 35.5451C131.809 35.6986 131.195 35.7754 130.581 35.7754ZM137.237 41.4042L140.333 34.1123L140.384 36.2103L133.834 21.9337H138.465L141.331 28.765C141.484 29.1061 141.629 29.4729 141.766 29.8652C141.902 30.2575 142.005 30.6327 142.073 30.9909L141.51 31.3235C141.612 31.0677 141.723 30.7521 141.843 30.3769C141.979 29.9846 142.124 29.5667 142.277 29.1232L144.785 21.9337H149.441L143.659 35.5195L141.305 41.4042H137.237Z" fill="#D4D4D8"/>
</svg>
